<?xml version="1.0" encoding="UTF-8"?>
<svg version="1.1" xmlns="http://www.w3.org/2000/svg" width="457" height="110">
<path d="M0 0 C150.81 0 301.62 0 457 0 C457 36.3 457 72.6 457 110 C306.19 110 155.38 110 0 110 C0 73.7 0 37.4 0 0 Z " fill="#F8FBF9" transform="translate(0,0)"/>
<path d="M0 0 C3.0625 1.3125 3.0625 1.3125 5 3 C5 3.99 5 4.98 5 6 C5.78503906 5.95359375 6.57007812 5.9071875 7.37890625 5.859375 C14.09783327 5.6285407 18.7921122 5.48649724 24 10 C25.24929184 16.11099381 25.32743058 22.35730693 25.62109375 28.57421875 C25.96007595 31.63903724 26.38961366 33.42468581 28 36 C27.34 36 26.68 36 26 36 C25.814375 37.3303125 25.814375 37.3303125 25.625 38.6875 C25.05587264 41.70387502 24.23385564 44.20326054 23 47 C22.37351563 47.02578125 21.74703125 47.0515625 21.1015625 47.078125 C20.28429687 47.13484375 19.46703125 47.1915625 18.625 47.25 C17.81289062 47.29640625 17.00078125 47.3428125 16.1640625 47.390625 C15.09285156 47.69226563 15.09285156 47.69226563 14 48 C13.34 49.32 12.68 50.64 12 52 C5.07 52 -1.86 52 -9 52 C-7.69791667 49.265625 -6.39583333 46.53125 -5.09375 43.796875 C-3.75719789 40.87964224 -3.75719789 40.87964224 -4 37 C-4.763125 36.731875 -5.52625 36.46375 -6.3125 36.1875 C-9.00070436 34.99968877 -10.18980426 34.25765985 -12 32 C-12.58984375 29.66015625 -12.58984375 29.66015625 -12.9375 27.0625 C-13.5488519 23.0191459 -13.5488519 23.0191459 -16.125 19.9375 C-18.31666143 17.67278319 -18.4421444 16.82477556 -18.6875 13.75 C-18.4947831 8.68908675 -16.14116617 6.07232047 -12.7265625 2.53125 C-8.93658673 -0.82999547 -4.84232274 -0.47588344 0 0 Z " fill="#A59691" transform="translate(53,31)"/>
<path d="M0 0 C32.59541985 0 32.59541985 0 37.7421875 4.53515625 C42.21871369 10.57074846 42.69528674 14.53322499 42 22 C40.95500814 26.02687944 39.52690829 28.94314598 36.05859375 31.34375 C31.37306875 33.75985866 27.1928679 35.12828247 21.89453125 35.09765625 C21.00870361 35.09515869 20.12287598 35.09266113 19.21020508 35.09008789 C18.0889624 35.08098389 16.96771973 35.07187988 15.8125 35.0625 C12.244375 35.041875 8.67625 35.02125 5 35 C5 43.91 5 52.82 5 62 C3.35 62 1.7 62 0 62 C0 41.54 0 21.08 0 0 Z " fill="#058D42" transform="translate(362,8)"/>
<path d="M0 0 C1.134375 0.020625 2.26875 0.04125 3.4375 0.0625 C8.09801793 10.88161251 12.28678111 21.8867017 16.50512695 32.88354492 C17.7596606 36.15015469 19.02139384 39.41392924 20.28320312 42.67773438 C21.08117243 44.75503811 21.87871424 46.83250613 22.67578125 48.91015625 C23.05382401 49.88509537 23.43186676 50.86003448 23.82136536 51.86451721 C24.16560043 52.76653366 24.50983551 53.66855011 24.86450195 54.59790039 C25.169189 55.38999405 25.47387604 56.18208771 25.78779602 56.9981842 C26.4375 59.0625 26.4375 59.0625 26.4375 62.0625 C24.4575 62.0625 22.4775 62.0625 20.4375 62.0625 C19.43369084 59.27214954 18.4343055 56.48035145 17.4375 53.6875 C17.00824219 52.49640625 17.00824219 52.49640625 16.5703125 51.28125 C16.29960937 50.52070312 16.02890625 49.76015625 15.75 48.9765625 C15.49863281 48.2748291 15.24726563 47.5730957 14.98828125 46.85009766 C14.4375 45.0625 14.4375 45.0625 14.4375 43.0625 C4.8675 43.0625 -4.7025 43.0625 -14.5625 43.0625 C-15.5525 46.3625 -16.5425 49.6625 -17.5625 53.0625 C-18.2472005 54.78913604 -18.96302994 56.50501228 -19.75 58.1875 C-20.26626953 59.30511719 -20.26626953 59.30511719 -20.79296875 60.4453125 C-21.04691406 60.97898438 -21.30085937 61.51265625 -21.5625 62.0625 C-23.5425 62.0625 -25.5225 62.0625 -27.5625 62.0625 C-22.46320563 47.70953407 -17.08154643 33.47014461 -11.625 19.25 C-11.28467743 18.36045624 -10.94435486 17.47091248 -10.59371948 16.55441284 C-9.61880062 14.00779202 -8.64011641 11.46265324 -7.66015625 8.91796875 C-7.36255402 8.13975769 -7.06495178 7.36154663 -6.7583313 6.55975342 C-4.25102856 0.07457945 -4.25102856 0.07457945 0 0 Z " fill="#098F46" transform="translate(152.5625,7.9375)"/>
<path d="M0 0 C2.64 0 5.28 0 8 0 C10.15418486 5.61381891 12.30443129 11.2291266 14.45141602 16.84570312 C15.17858901 18.74648317 15.90674072 20.64688916 16.63598633 22.546875 C21.65357371 35.62238223 26.44844972 48.75487167 31 62 C29.02 62 27.04 62 25 62 C22.69 56.06 20.38 50.12 18 44 C8.43 43.67 -1.14 43.34 -11 43 C-11.33 44.98 -11.66 46.96 -12 49 C-12.80253682 51.31025355 -13.65819751 53.60265016 -14.5625 55.875 C-15.01753906 57.02742188 -15.47257812 58.17984375 -15.94140625 59.3671875 C-16.29074219 60.23601562 -16.64007813 61.10484375 -17 62 C-18.98 62 -20.96 62 -23 62 C-21.00318229 55.0129582 -18.68014844 48.21492702 -16.09375 41.42578125 C-15.7277771 40.45771042 -15.3618042 39.48963959 -14.98474121 38.49223328 C-14.21653882 36.46222837 -13.44670165 34.43284141 -12.67529297 32.40405273 C-11.49974298 29.31182392 -10.32953621 26.21761359 -9.16015625 23.12304688 C-8.40916579 21.14050693 -7.65787404 19.15808108 -6.90625 17.17578125 C-6.55929077 16.25896072 -6.21233154 15.3421402 -5.8548584 14.39753723 C-4.00860251 9.54712052 -2.08425147 4.75317924 0 0 Z " fill="#0A8F46" transform="translate(424,8)"/>
<path d="M0 0 C0.66 0 1.32 0 2 0 C2.66 0.99 3.32 1.98 4 3 C7.58357241 3.25015873 7.58357241 3.25015873 11 3 C11 3.99 11 4.98 11 6 C12.65 6 14.3 6 16 6 C15.67 7.32 15.34 8.64 15 10 C14.34 10 13.68 10 13 10 C13.495 12.475 13.495 12.475 14 15 C12.35 15 10.7 15 9 15 C9.33 16.65 9.66 18.3 10 20 C9.030625 20.391875 8.06125 20.78375 7.0625 21.1875 C5.5465625 22.0846875 5.5465625 22.0846875 4 23 C3.8659375 23.804375 3.731875 24.60875 3.59375 25.4375 C3 28 3 28 0.93359375 29.58203125 C-0.30197266 30.19111328 -0.30197266 30.19111328 -1.5625 30.8125 C-2.38878906 31.23144531 -3.21507813 31.65039062 -4.06640625 32.08203125 C-4.70449219 32.38496094 -5.34257812 32.68789063 -6 33 C-5.67 35.97 -5.34 38.94 -5 42 C-3.68 42 -2.36 42 -1 42 C-1.33 44.31 -1.66 46.62 -2 49 C-0.68 49 0.64 49 2 49 C1.67 51.64 1.34 54.28 1 57 C2.32 57.33 3.64 57.66 5 58 C5.03738281 58.90363281 5.07476563 59.80726562 5.11328125 60.73828125 C5.17902344 61.91777344 5.24476562 63.09726563 5.3125 64.3125 C5.37050781 65.48425781 5.42851562 66.65601562 5.48828125 67.86328125 C6.01604768 71.0983686 6.42380724 72.08684881 9 74 C8.41992188 73.9278125 7.83984375 73.855625 7.2421875 73.78125 C2.79912426 73.2533613 -1.51631578 72.88503374 -6 73 C-6 72.34 -6 71.68 -6 71 C-7.65 70.67 -9.3 70.34 -11 70 C-11 68.68 -11 67.36 -11 66 C-11.763125 65.95875 -12.52625 65.9175 -13.3125 65.875 C-16 65 -16 65 -17.75 62.125 C-18.55779844 60.10550391 -19.31218442 58.06344675 -20 56 C-18.68 56 -17.36 56 -16 56 C-16.495 55.071875 -16.99 54.14375 -17.5 53.1875 C-19 50 -19 50 -19 47 C-18.38125 46.95875 -17.7625 46.9175 -17.125 46.875 C-16.42375 46.58625 -15.7225 46.2975 -15 46 C-13.6954344 43.00384054 -13.6954344 43.00384054 -13 40 C-11.35 40.33 -9.7 40.66 -8 41 C-8.97219693 35.1284422 -10.13509628 31.63788447 -14 27 C-14.1875 24.4375 -14.1875 24.4375 -14 22 C-14.29044914 20.65667272 -14.60955794 19.31774196 -15 18 C-14.01 18 -13.02 18 -12 18 C-12 15.36 -12 12.72 -12 10 C-11.01 10 -10.02 10 -9 10 C-9 8.35 -9 6.7 -9 5 C-8.01 5 -7.02 5 -6 5 C-6 5.66 -6 6.32 -6 7 C-2.57421051 3.82460444 -2.57421051 3.82460444 0 0 Z " fill="#078E46" transform="translate(21,15)"/>
<path d="M0 0 C7 0 7 0 8.87011719 1.65112305 C9.34094727 2.43011963 9.81177734 3.20911621 10.296875 4.01171875 C10.85431396 4.90173584 11.41175293 5.79175293 11.98608398 6.70874023 C12.56817627 7.69173096 13.15026855 8.67472168 13.75 9.6875 C15.04662756 11.77700401 16.34488913 13.86549467 17.64453125 15.953125 C17.98513077 16.50826279 18.32573029 17.06340057 18.676651 17.63536072 C23.09982683 24.84240672 27.78534998 31.87718293 32.4375 38.9375 C35.263125 43.248125 38.08875 47.55875 41 52 C41.33 34.84 41.66 17.68 42 0 C43.98 0 45.96 0 48 0 C48 20.79 48 41.58 48 63 C45.69 63 43.38 63 41 63 C38.85719472 60.65528906 37.462504 58.69789742 35.875 56 C34.85692106 54.37408972 33.83725024 52.74917565 32.81640625 51.125 C31.94459717 49.71347656 31.94459717 49.71347656 31.05517578 48.2734375 C28.62060703 44.39571146 26.11239654 40.57085758 23.58984375 36.75 C22.87909698 35.67310913 22.87909698 35.67310913 22.1539917 34.57446289 C21.18954935 33.11380157 20.22490845 31.65327133 19.2600708 30.19287109 C16.9236434 26.65350425 14.59492025 23.10912634 12.26953125 19.5625 C11.85340073 18.92989258 11.4372702 18.29728516 11.00852966 17.64550781 C8.11521417 13.23042835 8.11521417 13.23042835 7 11 C6.67 28.16 6.34 45.32 6 63 C4.02 63 2.04 63 0 63 C0 42.21 0 21.42 0 0 Z " fill="#0F914B" transform="translate(186,7)"/>
<path d="M0 0 C4.72601139 4.30132373 5.67336489 8.79393288 6 15 C4.02 15 2.04 15 0 15 C-0.226875 13.948125 -0.45375 12.89625 -0.6875 11.8125 C-1.83082685 7.81491037 -3.74519348 5.63484337 -7 3 C-12.46968898 1.21812194 -18.55833409 1.17935873 -23.9375 3.25 C-26.93956644 4.73578988 -26.93956644 4.73578988 -28.4375 6.6875 C-29.26949924 10.10794132 -29.79729518 13.54054973 -29 17 C-25.95551465 21.12081856 -22.12360293 22.19504888 -17.375 23.5 C-15.93679672 23.92732765 -14.49929258 24.35701542 -13.0625 24.7890625 C-12.36640625 24.99563477 -11.6703125 25.20220703 -10.953125 25.41503906 C1.78649306 29.23055467 1.78649306 29.23055467 6.00390625 34.73828125 C8.11904794 39.54089709 7.8320541 44.90447487 7 50 C4.09216175 55.80736839 0.35849754 59.16053478 -5.6875 61.3125 C-14.15033765 62.95670846 -21.22483533 62.81444216 -28.83203125 58.47265625 C-32.85578905 55.73940095 -35.51982047 53.42636169 -36.515625 48.39453125 C-36.78071724 45.92149966 -36.94596031 43.48582574 -37 41 C-35.02 41 -33.04 41 -31 41 C-30.773125 42.216875 -30.54625 43.43375 -30.3125 44.6875 C-29.01417397 49.85337468 -26.36958768 52.57824739 -21.8125 55.3125 C-14.85496417 57.01323098 -8.95764517 56.55189873 -2.59375 53.265625 C-0.61110787 51.6911739 0.09934974 50.35655577 1 48 C1.63341105 42.36041251 1.63341105 42.36041251 -0.6484375 37.375 C-3.3950499 34.60101272 -5.2509503 33.92530109 -9 32.9375 C-10.1446875 32.61652344 -11.289375 32.29554687 -12.46875 31.96484375 C-14.21671875 31.48724609 -14.21671875 31.48724609 -16 31 C-30.85519203 26.57467994 -30.85519203 26.57467994 -34.875 19.875 C-36.60377659 15.21829542 -36.3598088 10.73274237 -35 6 C-32.52419842 1.57005403 -28.96680989 -1.84547002 -24.10546875 -3.5625 C-15.73648619 -5.30150936 -7.33475542 -4.5539965 0 0 Z " fill="#0C9047" transform="translate(343,10)"/>
<path d="M0 0 C1.98 0.99 1.98 0.99 4 2 C4.144375 2.66 4.28875 3.32 4.4375 4 C4.623125 4.66 4.80875 5.32 5 6 C6.2375 6.495 6.2375 6.495 7.5 7 C8.325 7.33 9.15 7.66 10 8 C10.8125 10.125 10.8125 10.125 11 12 C12.32 12.33 13.64 12.66 15 13 C15 13.66 15 14.32 15 15 C15.71285156 14.90460938 16.42570312 14.80921875 17.16015625 14.7109375 C22.97988923 14.03732103 27.56546608 13.63715916 33 16 C33.495 17.485 33.495 17.485 34 19 C33.01 19.495 33.01 19.495 32 20 C32.309375 20.5775 32.61875 21.155 32.9375 21.75 C34.64738884 25.37094106 35.29222745 27.12331765 34 31 C36.97 31 39.94 31 43 31 C42.67 32.98 42.34 34.96 42 37 C28.14 37 14.28 37 0 37 C0 24.79 0 12.58 0 0 Z " fill="#FCFDFD" transform="translate(0,73)"/>
<path d="M0 0 C1.98 0 3.96 0 6 0 C6.10192421 6.67100892 6.17168442 13.34181493 6.21972656 20.01342773 C6.23976707 22.28010563 6.26700711 24.54673232 6.30175781 26.81323242 C6.35060868 30.08264856 6.37304512 33.35137757 6.390625 36.62109375 C6.41127014 37.62458359 6.43191528 38.62807343 6.45318604 39.66197205 C6.45568758 47.61324305 4.60934306 53.46971234 -0.125 59.875 C-7.02414818 64.97437039 -15.61729286 66.06276487 -24 65 C-30.77235441 63.29244055 -35.21807567 60.90925677 -39 55 C-41.50063782 49.37658235 -41.25643206 43.94736774 -41.1953125 37.9140625 C-41.1924826 36.85714203 -41.18965271 35.80022156 -41.18673706 34.71127319 C-41.1755785 31.34906499 -41.15048159 27.98712714 -41.125 24.625 C-41.11496462 22.33984761 -41.10583975 20.05469102 -41.09765625 17.76953125 C-41.07565332 12.17959589 -41.04221873 6.58981727 -41 1 C-39.35 1 -37.7 1 -36 1 C-35.99635437 1.55852661 -35.99270874 2.11705322 -35.98895264 2.69250488 C-35.94697148 8.53337432 -35.87751778 14.37346935 -35.79248047 20.21386719 C-35.76434633 22.39022049 -35.7430944 24.56667453 -35.72900391 26.74316406 C-35.70746994 29.88138118 -35.66076494 33.01839663 -35.609375 36.15625 C-35.60814636 37.12115356 -35.60691772 38.08605713 -35.60565186 39.0802002 C-35.45579437 46.07467209 -34.16611605 51.93282508 -29 56.9375 C-23.27168854 59.98066547 -15.75758618 60.07447317 -9.609375 58.31640625 C-4.70495477 56.12758167 -3.0196335 54.1113883 -1 49 C-0.53480235 45.23405799 -0.51155728 41.48671929 -0.48828125 37.6953125 C-0.47033005 36.61619598 -0.45237885 35.53707947 -0.43388367 34.42526245 C-0.37987133 30.99188091 -0.3459133 27.55863769 -0.3125 24.125 C-0.279319 21.79164746 -0.24482862 19.45831315 -0.20898438 17.125 C-0.12415004 11.41679072 -0.05576171 5.70856334 0 0 Z " fill="#0D9047" transform="translate(289,7)"/>
<path d="M0 0 C3.155625 -0.061875 6.31125 -0.12375 9.5625 -0.1875 C10.5429126 -0.21481201 11.5233252 -0.24212402 12.53344727 -0.27026367 C19.31100942 -0.33417052 24.11905582 0.56227801 29.4375 5.0625 C31.73204275 9.37624036 31.63061841 13.2151828 31 18 C29.64089139 21.75753558 28.56055937 22.69139417 25.0625 24.6171875 C20.16886892 26.62699247 15.2683544 26.32519093 10.0625 26.1875 C6.741875 26.125625 3.42125 26.06375 0 26 C0 17.42 0 8.84 0 0 Z " fill="#F5FAF7" transform="translate(367,12)"/>
<path d="M0 0 C0.66 0 1.32 0 2 0 C2.268125 1.0725 2.53625 2.145 2.8125 3.25 C3.69547644 6.89881456 3.69547644 6.89881456 5.625 8.875 C7.84603544 12.30750932 7.22948769 16.02221336 7 20 C6.34 20 5.68 20 5 20 C5 22.64 5 25.28 5 28 C4.01 28 3.02 28 2 28 C2 29.65 2 31.3 2 33 C1.01 33 0.02 33 -1 33 C-1.66 32.34 -2.32 31.68 -3 31 C-4.32 32.98 -5.64 34.96 -7 37 C-7.515625 36.67 -8.03125 36.34 -8.5625 36 C-11.78026512 34.67989123 -14.5570528 34.86757895 -18 35 C-18.495 33.515 -18.495 33.515 -19 32 C-21.01508358 31.26676204 -21.01508358 31.26676204 -23 31 C-22.505 29.515 -22.505 29.515 -22 28 C-21.34 28 -20.68 28 -20 28 C-20.66 26.35 -21.32 24.7 -22 23 C-20.02 22.67 -18.04 22.34 -16 22 C-16.33 20.35 -16.66 18.7 -17 17 C-15.02 16.34 -13.04 15.68 -11 15 C-10.89171875 13.83984375 -10.89171875 13.83984375 -10.78125 12.65625 C-10 10 -10 10 -7.96875 8.59375 C-6.32291667 7.86458333 -4.67708333 7.13541667 -3.03125 6.40625 C-0.73677496 5.13235609 -0.73677496 5.13235609 -0.21875 2.34375 C-0.1465625 1.5703125 -0.074375 0.796875 0 0 Z " fill="#068E46" transform="translate(98,60)"/>
<path d="M0 0 C-0.33 1.65 -0.66 3.3 -1 5 C1.64 5 4.28 5 7 5 C8 7 8 7 7.375 8.9375 C7.25125 9.618125 7.1275 10.29875 7 11 C7.495 11.45375 7.99 11.9075 8.5 12.375 C8.995 12.91125 9.49 13.4475 10 14 C9.625 17.0625 9.625 17.0625 9 20 C9.495 20.99 9.495 20.99 10 22 C8.02 21.67 6.04 21.34 4 21 C3.505 22.485 3.505 22.485 3 24 C1.68 23.34 0.36 22.68 -1 22 C-1 21.34 -1 20.68 -1 20 C-1.66 20 -2.32 20 -3 20 C-3.33 20.99 -3.66 21.98 -4 23 C-4.7425 22.67 -5.485 22.34 -6.25 22 C-9.13883312 20.77217129 -9.13883312 20.77217129 -13 21 C-16.50515911 20.63103588 -18.06215968 19.95597023 -21 17.875 C-23.82045867 15.69400495 -23.82045867 15.69400495 -26.875 16.25 C-27.57625 16.4975 -28.2775 16.745 -29 17 C-28.505 15.515 -28.505 15.515 -28 14 C-27.34 13.67 -26.68 13.34 -26 13 C-24.92405935 10.97879976 -24.02152534 8.90710199 -23.09765625 6.8125 C-22 5 -22 5 -19 4 C-18.34 3.01 -17.68 2.02 -17 1 C-16.34 1 -15.68 1 -15 1 C-15 1.66 -15 2.32 -15 3 C-14.38125 2.505 -13.7625 2.01 -13.125 1.5 C-8.73970259 -0.60494276 -4.78286739 -0.25075227 0 0 Z " fill="#068E45" transform="translate(68,1)"/>
<path d="M0 0 C0.598125 0.33 1.19625 0.66 1.8125 1 C4.05386471 2.20787988 4.05386471 2.20787988 7 2 C11 2 11 2 13 3.0625 C14.94722209 4.25111747 14.94722209 4.25111747 16.8828125 3.40234375 C19 3 19 3 20.9296875 4.03125 C21.57164063 4.5159375 22.21359375 5.000625 22.875 5.5 C25.94930116 7.58983393 26.62396284 8.02014485 30.5 7.8125 C31.325 7.544375 32.15 7.27625 33 7 C33 7.66 33 8.32 33 9 C32.195625 9.20625 31.39125 9.4125 30.5625 9.625 C29.2940625 10.305625 29.2940625 10.305625 28 11 C27.25335353 13.97980236 27.25335353 13.97980236 27 17 C26.34 17.66 25.68 18.32 25 19 C24.01 19 23.02 19 22 19 C21.34 20.32 20.68 21.64 20 23 C19.38125 22.79375 18.7625 22.5875 18.125 22.375 C17.42375 22.25125 16.7225 22.1275 16 22 C15.34 22.66 14.68 23.32 14 24 C11.3984375 24.1953125 11.3984375 24.1953125 8.375 24.125 C6.87066406 24.09792969 6.87066406 24.09792969 5.3359375 24.0703125 C4.56507812 24.04710938 3.79421875 24.02390625 3 24 C3.66 22.35 4.32 20.7 5 19 C2.03 19 -0.94 19 -4 19 C-3.938125 18.071875 -3.87625 17.14375 -3.8125 16.1875 C-3.69105736 13.01604897 -3.69105736 13.01604897 -5.5 11.125 C-5.995 10.75375 -6.49 10.3825 -7 10 C-6.67 9.01 -6.34 8.02 -6 7 C-5.34 7 -4.68 7 -4 7 C-4.66 5.35 -5.32 3.7 -6 2 C-4.35 2 -2.7 2 -1 2 C-0.67 1.34 -0.34 0.68 0 0 Z " fill="#058E45" transform="translate(38,85)"/>
<path d="M0 0 C1.175625 0.165 2.35125 0.33 3.5625 0.5 C7.41273873 0.98728512 11.12258073 1.08077957 15 1 C15 1.66 15 2.32 15 3 C17.475 3.495 17.475 3.495 20 4 C20 5.32 20 6.64 20 8 C20.78375 8.061875 21.5675 8.12375 22.375 8.1875 C23.24125 8.455625 24.1075 8.72375 25 9 C26.1875 11.5 26.1875 11.5 27 14 C27.66 14.33 28.32 14.66 29 15 C29 15.99 29 16.98 29 18 C27.68 18 26.36 18 25 18 C25.495 18.928125 25.99 19.85625 26.5 20.8125 C28 24 28 24 28 27 C27.38125 27.04125 26.7625 27.0825 26.125 27.125 C25.42375 27.41375 24.7225 27.7025 24 28 C22.6954344 30.99615946 22.6954344 30.99615946 22 34 C20.35 33.67 18.7 33.34 17 33 C16.34 34.32 15.68 35.64 15 37 C14.67 35.35 14.34 33.7 14 32 C12.68 32 11.36 32 10 32 C10.33 29.69 10.66 27.38 11 25 C9.68 25 8.36 25 7 25 C7.33 22.36 7.66 19.72 8 17 C6.68 16.67 5.36 16.34 4 16 C3.96261719 15.09636719 3.92523438 14.19273438 3.88671875 13.26171875 C3.82097656 12.08222656 3.75523438 10.90273438 3.6875 9.6875 C3.62949219 8.51574219 3.57148437 7.34398437 3.51171875 6.13671875 C2.98395232 2.9016314 2.57619276 1.91315119 0 0 Z " fill="#058E45" transform="translate(80,21)"/>
<path d="M0 0 C2.48898232 2.48898232 3.15849017 4.69428719 4.3828125 7.99609375 C4.82753906 9.19427734 5.27226562 10.39246094 5.73046875 11.62695312 C5.95911621 12.252229 6.18776367 12.87750488 6.42333984 13.52172852 C7.12209712 15.42957415 7.83185683 17.33305799 8.54296875 19.23632812 C12 28.61465926 12 28.61465926 12 32 C4.08 32 -3.84 32 -12 32 C-9.70870466 25.12611398 -7.34648757 18.30790714 -4.875 11.5 C-4.51535156 10.4996875 -4.15570313 9.499375 -3.78515625 8.46875 C-3.26888672 7.045625 -3.26888672 7.045625 -2.7421875 5.59375 C-2.27594971 4.30500977 -2.27594971 4.30500977 -1.80029297 2.99023438 C-1 1 -1 1 0 0 Z " fill="#F6FAF8" transform="translate(152,14)"/>
<path d="M0 0 C3.02608731 2.54380293 4.0899136 5.25192656 5.48046875 8.91015625 C5.92197266 10.06451172 6.36347656 11.21886719 6.81835938 12.40820312 C7.27017578 13.61412109 7.72199219 14.82003906 8.1875 16.0625 C8.65091797 17.27228516 9.11433594 18.48207031 9.59179688 19.72851562 C13 28.70830265 13 28.70830265 13 31 C5.08 31 -2.84 31 -11 31 C-10.22623995 27.13119974 -9.34681158 23.97678538 -7.96875 20.33203125 C-7.57042969 19.27435547 -7.17210937 18.21667969 -6.76171875 17.12695312 C-6.34535156 16.03318359 -5.92898438 14.93941406 -5.5 13.8125 C-5.08363281 12.70712891 -4.66726563 11.60175781 -4.23828125 10.46289062 C-1.16171288 2.32342575 -1.16171288 2.32342575 0 0 Z " fill="#F7FBF9" transform="translate(427,15)"/>
<path d="M0 0 C2.4375 1.4375 2.4375 1.4375 4 4 C4.77201236 8.33759522 4.75587974 11.76035723 2.4375 15.5625 C-0.98306617 17.57975697 -3.09873948 17.6269883 -7 17 C-9.57687323 14.88564247 -10.74473348 13.32896485 -11.37890625 10.02734375 C-11.57547799 6.63489591 -11.24074916 4.38519866 -9.4375 1.5 C-6.05111671 -0.58392818 -3.90614682 -0.55802097 0 0 Z " fill="#BCDEC8" transform="translate(282,82)"/>
<path d="M0 0 C8.17817372 -0.48106904 8.17817372 -0.48106904 11.5625 1.5 C13.57859335 5.00624931 13.73148406 8.11158471 13 12 C11.5625 15 11.5625 15 9 17 C5.87779838 17.41378576 3.17341405 17.23333927 0 17 C0 11.39 0 5.78 0 0 Z " fill="#B7DBC2" transform="translate(290,82)"/>
<path d="M0 0 C2.31 0 4.62 0 7 0 C7 0.66 7 1.32 7 2 C5.35 2 3.7 2 2 2 C2 21.8 2 41.6 2 62 C3.32 62.33 4.64 62.66 6 63 C4.02 63 2.04 63 0 63 C0 42.21 0 21.42 0 0 Z " fill="#37A064" transform="translate(186,7)"/>
<path d="M0 0 C1.60875 -0.04125 3.2175 -0.0825 4.875 -0.125 C5.77992188 -0.14820312 6.68484375 -0.17140625 7.6171875 -0.1953125 C10 0 10 0 12 2 C12.125 4.4375 12.125 4.4375 12 7 C12 7.99 12 8.98 12 10 C12 12.33333333 12 14.66666667 12 17 C11.34 16.67 10.68 16.34 10 16 C9.375 12.9375 9.375 12.9375 9 10 C6.69 9.67 4.38 9.34 2 9 C2 11.64 2 14.28 2 17 C1.34 17 0.68 17 0 17 C0 11.39 0 5.78 0 0 Z " fill="#2E9A57" transform="translate(256,82)"/>
<path d="M0 0 C8.75 -0.125 8.75 -0.125 11 1 C11.1875 4.375 11.1875 4.375 11 8 C7.5647952 10.29013653 6.014669 10.17842973 2 10 C2 12.31 2 14.62 2 17 C1.34 17 0.68 17 0 17 C0 11.39 0 5.78 0 0 Z " fill="#93C9A6" transform="translate(373,82)"/>
<path d="M0 0 C1.423125 -0.061875 2.84625 -0.12375 4.3125 -0.1875 C5.51326172 -0.23970703 5.51326172 -0.23970703 6.73828125 -0.29296875 C9 0 9 0 10.8125 1.3515625 C12 3 12 3 11.6875 5.5625 C11.460625 6.366875 11.23375 7.17125 11 8 C11 11.04200046 11.55486342 13.99532806 12 17 C11.34 17 10.68 17 10 17 C9.34 14.69 8.68 12.38 8 10 C5.69 9.67 3.38 9.34 1 9 C1 11.64 1 14.28 1 17 C0.67 17 0.34 17 0 17 C0 11.39 0 5.78 0 0 Z " fill="#89C6A0" transform="translate(156,82)"/>
<path d="M0 0 C6.8359375 -0.1953125 6.8359375 -0.1953125 9 0 C11 2 11 2 11.125 5.125 C11.08375 6.07375 11.0425 7.0225 11 8 C7.5980513 10.09350689 4.94727588 10.17942163 1 10 C1 12.31 1 14.62 1 17 C0.67 17 0.34 17 0 17 C0 11.39 0 5.78 0 0 Z " fill="#94C9A4" transform="translate(242,82)"/>
<path d="M0 0 C0.66 0 1.32 0 2 0 C2.69906942 1.59915881 3.38389468 3.20455045 4.0625 4.8125 C4.44535156 5.70582031 4.82820312 6.59914063 5.22265625 7.51953125 C6 10 6 10 5 13 C3.741875 12.9175 2.48375 12.835 1.1875 12.75 C-0.98797348 12.68311857 -0.98797348 12.68311857 -3 13 C-5.05270463 14.84188612 -5.05270463 14.84188612 -6 17 C-5.49487476 10.77012202 -2.67395877 5.54525767 0 0 Z " fill="#379C5C" transform="translate(193,82)"/>
<path d="M0 0 C1.588125 -0.061875 3.17625 -0.12375 4.8125 -0.1875 C6.15248047 -0.23970703 6.15248047 -0.23970703 7.51953125 -0.29296875 C10 0 10 0 11.796875 1.203125 C14.16896402 4.74585535 13.57341827 8.92606319 13 13 C11.5625 15.625 11.5625 15.625 9 17 C5.91797757 17.30767177 3.11414551 17.18318503 0 17 C0 11.39 0 5.78 0 0 Z M2 1 C2 5.62 2 10.24 2 15 C3.918125 15.0928125 3.918125 15.0928125 5.875 15.1875 C6.59429687 15.22230469 7.31359375 15.25710937 8.0546875 15.29296875 C8.69664062 15.19628906 9.33859375 15.09960938 10 15 C12.54393252 11.18410122 12.57737956 8.4700353 12 4 C11.10242444 1.85219923 11.10242444 1.85219923 9 1 C6.69 1 4.38 1 2 1 Z " fill="#3A9E60" transform="translate(443,82)"/>
<path d="M0 0 C3.63 0 7.26 0 11 0 C11 0.33 11 0.66 11 1 C7.7 1 4.4 1 1 1 C1 3.31 1 5.62 1 8 C3.97 8 6.94 8 10 8 C10 8.33 10 8.66 10 9 C7.36 9 4.72 9 2 9 C2 10.98 2 12.96 2 15 C5.3 15 8.6 15 12 15 C12 15.66 12 16.32 12 17 C8.04 17 4.08 17 0 17 C0 11.39 0 5.78 0 0 Z " fill="#349953" transform="translate(141,82)"/>
<path d="M0 0 C0.66 0 1.32 0 2 0 C2 2.64 2 5.28 2 8 C5.3 8 8.6 8 12 8 C12 5.36 12 2.72 12 0 C12.33 0 12.66 0 13 0 C13 5.61 13 11.22 13 17 C12.67 17 12.34 17 12 17 C12 14.36 12 11.72 12 9 C8.7 9 5.4 9 2 9 C2 11.64 2 14.28 2 17 C1.34 17 0.68 17 0 17 C0 11.39 0 5.78 0 0 Z " fill="#29954F" transform="translate(124,82)"/>
<path d="M0 0 C3.375 -0.125 3.375 -0.125 7 0 C9 2 9 2 9 6 C6.04335481 7.4783226 3.25770263 7.06032783 0 7 C0 4.69 0 2.38 0 0 Z " fill="#F7FBF9" transform="translate(258,83)"/>
<path d="M0 0 C1.99097846 2.98646769 2.94124926 5.59687262 4 9 C2.68 9 1.36 9 0 9 C-0.33 9.66 -0.66 10.32 -1 11 C-1.0270043 9.54176788 -1.04639787 8.08339325 -1.0625 6.625 C-1.07410156 5.81289062 -1.08570312 5.00078125 -1.09765625 4.1640625 C-1 2 -1 2 0 0 Z " fill="#EDF5F0" transform="translate(1,62)"/>
<path d="M0 0 C0.66 0.33 1.32 0.66 2 1 C2.73075648 3.3140622 3.40138258 5.64828869 4 8 C2.02 8 0.04 8 -2 8 C-1.34 5.36 -0.68 2.72 0 0 Z " fill="#EEF6F1" transform="translate(193,84)"/>
</svg>
